<svg width="225" height="226" viewBox="0 0 225 226" fill="none" xmlns="http://www.w3.org/2000/svg">
<g clip-path="url(#clip0_5067_18437)">
<rect width="225" height="226" rx="20" fill="#08BECA"/>
<ellipse cx="111.538" cy="172.833" rx="126.369" ry="126.931" fill="white"/>
<path d="M126.793 166.784C118.517 159.803 106.443 159.803 98.1672 166.784L92.3438 171.697C87.8884 175.455 88.1609 182.426 92.8958 185.822L99.5473 190.592C107.284 196.141 117.676 196.141 125.413 190.592L132.065 185.822C136.8 182.426 137.072 175.455 132.617 171.697L126.793 166.784Z" fill="#FF9403"/>
<ellipse cx="148.031" cy="140.789" rx="18.8419" ry="20.6681" fill="#2C2726"/>
<ellipse cx="76.9669" cy="140.789" rx="18.8419" ry="20.6681" fill="#2C2726"/>
<path fill-rule="evenodd" clip-rule="evenodd" d="M92.767 138.93C105.203 125.38 123.419 129.171 132.069 138.964C132.942 139.954 132.852 141.467 131.867 142.345C130.882 143.223 129.375 143.132 128.501 142.143C121.372 134.07 106.453 131.085 96.2732 142.177C95.3807 143.149 93.8722 143.211 92.904 142.315C91.9358 141.418 91.8745 139.903 92.767 138.93Z" fill="#2C2726"/>
<path d="M205.083 21.212C190.598 -5.65758 149.646 -16 112.524 -16C75.4017 -16 34.4713 -5.65758 19.9862 21.212C3.48997 51.7842 -14.1189 220.49 -5.92425 232.218C2.2704 243.946 24.0943 227.398 30.1065 196.371C36.1188 165.344 38.8361 118.451 44.292 114.314C49.748 110.178 91.791 102.007 112.524 102.007C133.256 102.007 175.299 110.178 180.755 114.314C186.211 118.451 188.95 165.344 194.941 196.371C200.953 227.398 222.777 243.946 230.972 232.218C239.166 220.49 221.557 51.7842 205.061 21.212H205.083Z" fill="#624237"/>
<path d="M223.418 103.559C223.012 100.683 222.605 97.8496 222.177 95.0158C209.982 96.9601 178.829 99.6078 112.523 93.6299C46.2171 99.6078 15.0646 96.9601 2.86889 95.0158C2.44098 97.8289 2.03445 100.683 1.62793 103.559C20.9913 107.716 64.3608 105.586 90.7634 103.745C98.8511 102.69 106.575 102.007 112.523 102.007C118.471 102.007 126.195 102.69 134.283 103.745C160.685 105.586 204.055 107.716 223.418 103.559Z" fill="#B6997D"/>
<path d="M27.0888 47.2544C28.6293 47.8956 32.6517 39.0011 42.5366 42.8071C42.5366 42.8071 57.0645 35.1951 75.2938 36.1466C93.5232 37.0981 99.0861 39.0011 99.0861 39.0011C99.0861 39.0011 105.377 32.6509 112.266 39.6424C112.266 39.6424 129.982 35.9811 134.924 36.0639C139.867 36.1466 166.761 39.9526 166.761 39.9526C166.761 39.9526 181.289 37.0981 183.151 39.3114C185.012 41.5247 183.151 41.6488 183.151 41.6488C183.151 41.6488 197.679 36.4569 202.001 44.0689C202.001 44.0689 204.483 42.1659 206.644 51.0397C208.805 59.9135 212.506 61.8372 210.345 72.614C208.184 83.4115 211.886 92.2853 208.805 95.4501C205.724 98.6148 205.403 100.518 205.403 100.518C205.403 100.518 206.323 107.385 203.541 108.544C200.76 109.702 198.599 108.544 198.599 108.544C198.599 108.544 198.128 116.321 192.479 115.887C186.831 115.452 170.763 111.626 169.843 111.315C168.922 111.005 161.498 114.046 144.809 108.564C144.809 108.564 142.327 112.784 135.545 108.564C135.545 108.564 113.849 117.024 88.5593 111.005C88.5593 111.005 73.3682 114.728 75.2724 108.564C75.2724 108.564 49.7471 114.646 36.3318 112.267C33.6359 111.791 29.8488 110.674 29.8488 110.674C29.8488 110.674 22.4244 112.887 20.5844 106.868C20.5844 106.868 12.5395 103.703 20.5844 91.0028C20.5844 91.0028 16.5406 72.5933 17.0113 66.574C17.482 60.5547 22.4458 56.1075 21.8254 54.5148C21.2049 52.922 19.3434 44.0482 27.0888 47.213V47.2544Z" fill="#E7DDD9"/>
</g>
<rect x="0.5" y="0.5" width="224" height="225" rx="19.5" stroke="#08BECA"/>
<defs>
<clipPath id="clip0_5067_18437">
<rect width="225" height="226" rx="20" fill="white"/>
</clipPath>
</defs>
</svg>
